<?xml version="1.0" encoding="UTF-8"?>
<svg id="Layer_1" xmlns="http://www.w3.org/2000/svg" version="1.1" viewBox="0 0 234.8 234.8">
  <!-- Generator: Adobe Illustrator 29.4.0, SVG Export Plug-In . SVG Version: 2.1.0 Build 152)  -->
  <defs>
    <style>
      .st0 {
        fill: none;
      }

      .st1 {
        fill: #231f20;
      }
    </style>
  </defs>
  <path class="st1" d="M200.4,34.4C178.2,12.2,148.7,0,117.4,0S56.5,12.2,34.4,34.4C12.2,56.5,0,86,0,117.4s12.2,60.8,34.4,83c22.2,22.2,51.6,34.4,83,34.4s60.8-12.2,83-34.4c22.2-22.2,34.4-51.7,34.4-83s-12.2-60.8-34.4-83ZM117.4,218.6c-55.9,0-101.3-45.3-101.3-101.3S61.5,16.1,117.4,16.1s101.3,45.3,101.3,101.3-45.3,101.3-101.3,101.3h0Z"/>
  <g>
    <g>
      <g>
        <path class="st1" d="M163.2,181.5c-1.7,0-3.4-.5-4.8-1.4-.3-.2-.5-.4-.8-.6-15.9-11.4-26.9-28.2-31-47.3l-.3-1.6h-17.5l-.3,1.6c-4.1,19.1-15.2,36-31.2,47.4h-.1c0,.1,0,.1,0,.1,0,0-.2.1-.2.2-.1,0-.2.1-.3.2h0c-1.4.9-3.1,1.4-4.8,1.4-5,0-9-4-9-9s1.5-5.8,4-7.5c16-11.3,25.5-29.6,25.5-49.2s-3.8-24.5-11-34.7c0,0,0,0,0-.2-1-1.5-1.5-3.2-1.5-4.9,0-5,4-9,9-9s5.3,1.2,7,3.3c.2.3.5.7.7,1h0s0,0,0,0h0c8.3,12.1,13,26.1,13.7,40.7v1.9h14.9v-1.9c.6-10.7,3.2-20.9,7.9-30.5h0c1.4-3,3-5.7,4.6-8.3.5-.8,1-1.5,1.5-2.2.1-.2.2-.3.3-.5.6-.8,1.4-1.5,2.3-2.1,1.5-1,3.2-1.5,4.9-1.5,5,0,9,4,9,9s-.5,3.5-1.5,4.9c-.1.2-.2.3-.3.4h0c-.7,1.1-1.4,2.1-2,3.2-.7,1.1-1.3,2.2-1.9,3.4h0v.2c-.1,0-.1,0-.1,0-4.4,8.4-6.7,18-6.7,27.6s.8,11.6,2.5,17.2c3.8,12.8,11.9,24.1,22.8,31.8h.1c0,.1,0,.1,0,.1,2.4,1.7,3.8,4.4,3.8,7.4,0,5-4,9-9,9h0Z"/>
        <path class="st1" d="M163.2,181.5c-1.7,0-3.4-.5-4.8-1.4-.3-.2-.5-.4-.8-.6-15.9-11.4-26.9-28.2-31-47.3l-.3-1.6h-17.5l-.3,1.6c-4.1,19.1-15.2,36-31.2,47.4h-.1c0,.1,0,.1,0,.1,0,0-.2.1-.2.2-.1,0-.2.1-.3.2h0c-1.4.9-3.1,1.4-4.8,1.4-5,0-9-4-9-9s1.5-5.8,4-7.5c16-11.3,25.5-29.6,25.5-49.2s-3.8-24.5-11-34.7c0,0,0,0,0-.2-1-1.5-1.5-3.2-1.5-4.9,0-5,4-9,9-9s5.3,1.2,7,3.3c.2.3.5.7.7,1h0s0,0,0,0h0c8.3,12.1,13,26.1,13.7,40.7v1.9h14.9v-1.9c.6-10.7,3.2-20.9,7.9-30.5h0c1.4-3,3-5.7,4.6-8.3.5-.8,1-1.5,1.5-2.2.1-.2.2-.3.3-.5.6-.8,1.4-1.5,2.3-2.1,1.5-1,3.2-1.5,4.9-1.5,5,0,9,4,9,9s-.5,3.5-1.5,4.9c-.1.2-.2.3-.3.4h0c-.7,1.1-1.4,2.1-2,3.2-.7,1.1-1.3,2.2-1.9,3.4h0v.2c-.1,0-.1,0-.1,0-4.4,8.4-6.7,18-6.7,27.6s.8,11.6,2.5,17.2c3.8,12.8,11.9,24.1,22.8,31.8h.1c0,.1,0,.1,0,.1,2.4,1.7,3.8,4.4,3.8,7.4,0,5-4,9-9,9h0Z"/>
      </g>
      <path class="st1" d="M117.5,37.2c-7.9,0-14.3,6.4-14.3,14.4s6.4,14.3,14.3,14.3,14.4-6.4,14.4-14.3-6.4-14.3-14.3-14.4Z"/>
    </g>
    <path class="st0" d="M172.2,172.5c0,5-4,9-9,9s-3.4-.5-4.8-1.4c-.3-.2-.5-.4-.8-.6-15.9-11.4-26.9-28.2-31-47.3l-.3-1.6h-17.5l-.3,1.6c-4.1,19.1-15.2,36-31.2,47.4h-.1c0,.1,0,.1,0,.1,0,0-.2.1-.2.2-.1,0-.2.1-.3.2h0c-1.4.9-3.1,1.4-4.8,1.4-5,0-9-4-9-9s1.5-5.8,4-7.5c16-11.3,25.5-29.6,25.5-49.2s-3.8-24.5-11-34.7c0,0,0,0,0-.2-1-1.5-1.5-3.2-1.5-4.9,0-5,4-9,9-9s5.3,1.2,7,3.3c.2.3.5.7.7,1h0s0,0,0,0h0c8.3,12.1,13,26.1,13.7,40.7v1.9h14.9v-1.9c.6-10.7,3.2-20.9,7.9-30.5h0c1.4-3,3-5.7,4.6-8.3.5-.8,1-1.5,1.5-2.2.1-.2.2-.3.3-.5.6-.8,1.4-1.5,2.3-2.1,1.5-1,3.2-1.5,4.9-1.5,5,0,9,4,9,9s-.5,3.5-1.5,4.9c-.1.2-.2.3-.3.4h0c-.7,1.1-1.4,2.1-2,3.2-.7,1.1-1.3,2.2-1.9,3.4h0v.2c-.1,0-.1,0-.1,0-4.4,8.4-6.7,18-6.7,27.6s.8,11.6,2.5,17.2c3.8,12.8,11.9,24.1,22.8,31.8h.1c0,.1,0,.1,0,.1,2.4,1.7,3.8,4.4,3.8,7.4h0Z"/>
  </g>
</svg>