<?xml version="1.0" encoding="UTF-8"?>
<svg id="Layer_1" data-name="Layer 1" xmlns="http://www.w3.org/2000/svg" viewBox="0 0 1401.01 234.78">
  <defs>
    <style>
      .cls-1 {
        fill: none;
      }

      .cls-2 {
        fill: #231f20;
      }
    </style>
  </defs>
  <g>
    <path class="cls-2" d="M200.39,34.38C178.22,12.2,148.74,0,117.39,0S56.55,12.2,34.38,34.38C12.2,56.55,0,86.03,0,117.39s12.2,60.83,34.38,83c22.17,22.17,51.65,34.39,83.01,34.39s60.83-12.21,83-34.39c22.17-22.17,34.39-51.65,34.39-83s-12.21-60.84-34.39-83.01ZM117.39,218.65c-55.93,0-101.26-45.34-101.26-101.26S61.46,16.12,117.39,16.12s101.26,45.33,101.26,101.26-45.34,101.26-101.26,101.26Z"/>
    <g>
      <g>
        <g>
          <path class="cls-2" d="M163.17,181.51c-1.7,0-3.37-.48-4.8-1.39-.27-.18-.54-.37-.83-.58-15.92-11.42-26.92-28.2-30.96-47.27l-.33-1.59h-17.54l-.34,1.59c-4.07,19.15-15.15,35.97-31.18,47.37l-.14.1h-.01c-.08.07-.16.12-.24.18-.11.07-.22.15-.33.23h-.03c-1.43.95-3.11,1.43-4.85,1.43-4.96,0-9-4.03-9-9,0-2.99,1.48-5.78,4-7.49,15.96-11.27,25.5-29.64,25.5-49.16,0-12.52-3.8-24.5-11.01-34.68-.03-.05-.07-.1-.1-.15-.96-1.47-1.46-3.16-1.46-4.93,0-4.96,4.04-9,9-9,2.74,0,5.29,1.22,7,3.35.23.31.46.65.69.96v.02s.03.04.03.04l.05.07c8.28,12,13.02,26.05,13.71,40.62l.08,1.92h14.82l.09-1.92c.49-10.67,3.12-20.93,7.8-30.51l.06-.12v-.02c1.4-2.82,2.96-5.56,4.64-8.13.53-.81,1.01-1.51,1.46-2.16.1-.16.21-.31.33-.48.63-.84,1.39-1.53,2.26-2.1,1.46-.96,3.16-1.46,4.92-1.46,4.97,0,9,4.04,9,9,0,1.76-.5,3.47-1.46,4.93-.12.15-.22.31-.32.45l-.08.12c-.7.99-1.36,2.02-1.99,3.03-.66,1.08-1.29,2.21-1.89,3.36h-.01s-.1.2-.1.2l-.04.09c-4.37,8.45-6.68,17.98-6.68,27.56,0,5.83.84,11.59,2.48,17.15,3.8,12.77,11.88,24.08,22.78,31.84l.15.11.05.03c2.4,1.69,3.83,4.43,3.83,7.37,0,4.97-4.04,9.01-9,9.01Z"/>
          <path class="cls-2" d="M163.17,181.51c-1.7,0-3.37-.48-4.8-1.39-.27-.18-.54-.37-.83-.58-15.92-11.42-26.92-28.2-30.96-47.27l-.33-1.59h-17.54l-.34,1.59c-4.07,19.15-15.15,35.97-31.18,47.37l-.14.1h-.01c-.08.07-.16.12-.24.18-.11.07-.22.15-.33.23h-.03c-1.43.95-3.11,1.43-4.85,1.43-4.96,0-9-4.03-9-9,0-2.99,1.48-5.78,4-7.49,15.96-11.27,25.5-29.64,25.5-49.16,0-12.52-3.8-24.5-11.01-34.68-.03-.05-.07-.1-.1-.15-.96-1.47-1.46-3.16-1.46-4.93,0-4.96,4.04-9,9-9,2.74,0,5.29,1.22,7,3.35.23.31.46.65.69.96v.02s.03.04.03.04l.05.07c8.28,12,13.02,26.05,13.71,40.62l.08,1.92h14.82l.09-1.92c.49-10.67,3.12-20.93,7.8-30.51l.06-.12v-.02c1.4-2.82,2.96-5.56,4.64-8.13.53-.81,1.01-1.51,1.46-2.16.1-.16.21-.31.33-.48.63-.84,1.39-1.53,2.26-2.1,1.46-.96,3.16-1.46,4.92-1.46,4.97,0,9,4.04,9,9,0,1.76-.5,3.47-1.46,4.93-.12.15-.22.31-.32.45l-.08.12c-.7.99-1.36,2.02-1.99,3.03-.66,1.08-1.29,2.21-1.89,3.36h-.01s-.1.2-.1.2l-.04.09c-4.37,8.45-6.68,17.98-6.68,27.56,0,5.83.84,11.59,2.48,17.15,3.8,12.77,11.88,24.08,22.78,31.84l.15.11.05.03c2.4,1.69,3.83,4.43,3.83,7.37,0,4.97-4.04,9.01-9,9.01Z"/>
        </g>
        <path class="cls-2" d="M117.49,37.23c-7.91,0-14.34,6.44-14.34,14.35s6.43,14.35,14.34,14.35,14.35-6.44,14.35-14.35-6.43-14.35-14.35-14.35Z"/>
      </g>
      <path class="cls-1" d="M172.17,172.5c0,4.97-4.04,9.01-9,9.01-1.7,0-3.37-.48-4.8-1.39-.27-.18-.54-.37-.83-.58-15.92-11.42-26.92-28.2-30.96-47.27l-.33-1.59h-17.54l-.34,1.59c-4.07,19.15-15.15,35.97-31.18,47.37l-.14.1h-.01c-.08.07-.16.12-.24.18-.11.07-.22.15-.33.23h-.03c-1.43.95-3.11,1.43-4.85,1.43-4.96,0-9-4.03-9-9,0-2.99,1.48-5.78,4-7.49,15.96-11.27,25.5-29.64,25.5-49.16,0-12.52-3.8-24.5-11.01-34.68-.03-.05-.07-.1-.1-.15-.96-1.47-1.46-3.16-1.46-4.93,0-4.96,4.04-9,9-9,2.74,0,5.29,1.22,7,3.35.23.31.46.65.69.96v.02s.03.04.03.04l.05.07c8.28,12,13.02,26.05,13.71,40.62l.08,1.92h14.82l.09-1.92c.49-10.67,3.12-20.93,7.8-30.51l.06-.12v-.02c1.4-2.82,2.96-5.56,4.64-8.13.53-.81,1.01-1.51,1.46-2.16.1-.16.21-.31.33-.48.63-.84,1.39-1.53,2.26-2.1,1.46-.96,3.16-1.46,4.92-1.46,4.97,0,9,4.04,9,9,0,1.76-.5,3.47-1.46,4.93-.12.15-.22.31-.32.45l-.08.12c-.7.99-1.36,2.02-1.99,3.03-.66,1.08-1.29,2.21-1.89,3.36h-.01s-.1.2-.1.2l-.04.09c-4.37,8.45-6.68,17.98-6.68,27.56,0,5.83.84,11.59,2.48,17.15,3.8,12.77,11.88,24.08,22.78,31.84l.15.11.05.03c2.4,1.69,3.83,4.43,3.83,7.37Z"/>
    </g>
  </g>
  <g>
    <path class="cls-2" d="M273.91,172.54v-107.97h22.41v41.17h41.97v-41.17h22.41v107.97h-22.41v-48.2h-41.97v48.2h-22.41Z"/>
    <path class="cls-2" d="M401.51,90.95v48.12c0,4.54.53,7.96,1.6,10.25,1.89,4.05,5.61,6.08,11.15,6.08,7.09,0,11.95-2.88,14.58-8.64,1.36-3.12,2.04-7.25,2.04-12.38v-43.44h21.17v79.84h-20.29v-11.28c-.19.24-.68.98-1.46,2.2-.78,1.22-1.7,2.3-2.77,3.22-3.26,2.93-6.42,4.93-9.46,6.01s-6.61,1.61-10.7,1.61c-11.79,0-19.72-4.25-23.81-12.75-2.29-4.69-3.43-11.6-3.43-20.73v-48.12h21.39Z"/>
    <path class="cls-2" d="M571.96,93c3.42,1.37,6.52,3.76,9.3,7.18,2.25,2.78,3.76,6.2,4.54,10.25.49,2.69.73,6.62.73,11.79l-.15,50.32h-21.39v-50.83c0-3.03-.49-5.52-1.46-7.47-1.86-3.71-5.27-5.57-10.25-5.57-5.76,0-9.74,2.39-11.94,7.18-1.12,2.54-1.68,5.59-1.68,9.16v47.54h-21.02v-47.54c0-4.74-.49-8.18-1.46-10.33-1.76-3.86-5.2-5.79-10.33-5.79-5.96,0-9.96,1.93-12.01,5.79-1.12,2.2-1.68,5.47-1.68,9.82v48.05h-21.17v-79.69h20.29v11.65c2.59-4.15,5.03-7.11,7.32-8.86,4.05-3.12,9.3-4.69,15.75-4.69,6.1,0,11.04,1.34,14.8,4.03,3.03,2.49,5.32,5.69,6.89,9.6,2.73-4.69,6.13-8.13,10.18-10.33,4.3-2.2,9.08-3.3,14.36-3.3,3.52,0,6.98.68,10.4,2.05Z"/>
    <path class="cls-2" d="M637.35,121.49c3.89-.49,6.67-1.1,8.34-1.83,3-1.27,4.5-3.25,4.5-5.93,0-3.27-1.15-5.53-3.45-6.78s-5.68-1.87-10.14-1.87c-5,0-8.54,1.22-10.62,3.66-1.49,1.81-2.48,4.25-2.97,7.32h-20.14c.44-6.98,2.4-12.72,5.88-17.21,5.54-7.03,15.06-10.55,28.54-10.55,8.78,0,16.58,1.73,23.39,5.2,6.82,3.47,10.23,10.01,10.23,19.63v36.62c0,2.54.05,5.62.15,9.23.15,2.74.56,4.59,1.25,5.57.68.98,1.71,1.78,3.08,2.42v3.08h-22.71c-.64-1.61-1.08-3.12-1.32-4.54-.24-1.42-.44-3.03-.59-4.83-2.9,3.13-6.24,5.79-10.02,7.98-4.52,2.59-9.63,3.88-15.33,3.88-7.27,0-13.27-2.06-18.01-6.19-4.74-4.13-7.11-9.97-7.11-17.54,0-9.82,3.81-16.92,11.44-21.32,4.18-2.39,10.33-4.1,18.45-5.13l7.16-.88ZM650.11,131.23c-1.34.83-2.69,1.5-4.05,2.01-1.36.51-3.23.99-5.61,1.43l-4.75.88c-4.45.78-7.65,1.73-9.6,2.86-3.29,1.9-4.93,4.86-4.93,8.86,0,3.57,1,6.14,3.01,7.73,2.01,1.59,4.45,2.38,7.32,2.38,4.56,0,8.76-1.32,12.61-3.96,3.84-2.64,5.84-7.45,5.99-14.43v-7.76Z"/>
    <path class="cls-2" d="M753.54,97.28c5.23,4.32,7.84,11.49,7.84,21.5v53.76h-21.39v-48.56c0-4.2-.56-7.42-1.67-9.67-2.04-4.1-5.92-6.15-11.63-6.15-7.03,0-11.85,3-14.47,9.01-1.36,3.17-2.04,7.23-2.04,12.16v43.22h-20.88v-79.69h20.22v11.65c2.67-4.1,5.2-7.06,7.59-8.86,4.28-3.22,9.7-4.83,16.27-4.83,8.22,0,14.94,2.16,20.17,6.48Z"/>
    <path class="cls-2" d="M895.61,125.81c-6.32,5.27-15.35,7.91-27.08,7.91h-22.48v38.82h-22.41v-107.97h46.36c10.69,0,19.21,2.78,25.56,8.35,6.36,5.57,9.53,14.19,9.53,25.86,0,12.75-3.16,21.75-9.48,27.03ZM878.39,86.92c-2.86-2.39-6.86-3.59-12.01-3.59h-20.33v31.79h20.33c5.15,0,9.15-1.29,12.01-3.88,2.86-2.59,4.29-6.69,4.29-12.31s-1.43-9.62-4.29-12.01Z"/>
    <path class="cls-2" d="M953.12,121.49c3.89-.49,6.67-1.1,8.34-1.83,3-1.27,4.5-3.25,4.5-5.93,0-3.27-1.15-5.53-3.45-6.78-2.3-1.25-5.68-1.87-10.14-1.87-5,0-8.54,1.22-10.62,3.66-1.49,1.81-2.48,4.25-2.97,7.32h-20.14c.44-6.98,2.4-12.72,5.88-17.21,5.54-7.03,15.06-10.55,28.54-10.55,8.78,0,16.58,1.73,23.39,5.2,6.82,3.47,10.23,10.01,10.23,19.63v36.62c0,2.54.05,5.62.15,9.23.15,2.74.56,4.59,1.25,5.57.68.98,1.71,1.78,3.08,2.42v3.08h-22.71c-.64-1.61-1.08-3.12-1.32-4.54-.24-1.41-.44-3.03-.59-4.83-2.9,3.13-6.24,5.79-10.02,7.98-4.52,2.59-9.63,3.88-15.33,3.88-7.27,0-13.27-2.06-18.01-6.19s-7.11-9.97-7.11-17.54c0-9.82,3.81-16.92,11.44-21.32,4.18-2.39,10.33-4.1,18.45-5.13l7.16-.88ZM965.88,131.23c-1.34.83-2.69,1.5-4.05,2.01-1.36.51-3.23.99-5.61,1.43l-4.75.88c-4.45.78-7.65,1.73-9.6,2.86-3.29,1.9-4.93,4.86-4.93,8.86,0,3.57,1,6.14,3.01,7.73,2.01,1.59,4.45,2.38,7.32,2.38,4.56,0,8.76-1.32,12.61-3.96,3.84-2.64,5.84-7.45,5.99-14.43v-7.76Z"/>
    <path class="cls-2" d="M1049.28,90.84c.27.03.87.06,1.79.11v21.39c-1.32-.15-2.49-.24-3.52-.29-1.03-.05-1.86-.07-2.49-.07-8.4,0-14.04,2.74-16.92,8.2-1.61,3.08-2.42,7.81-2.42,14.21v38.16h-21.02v-79.84h19.92v13.92c3.22-5.32,6.03-8.96,8.42-10.91,3.91-3.27,8.98-4.91,15.24-4.91.39,0,.72.01.99.04Z"/>
    <path class="cls-2" d="M1094.93,121.49c3.89-.49,6.67-1.1,8.34-1.83,3-1.27,4.5-3.25,4.5-5.93,0-3.27-1.15-5.53-3.45-6.78-2.3-1.25-5.68-1.87-10.14-1.87-5,0-8.54,1.22-10.62,3.66-1.49,1.81-2.48,4.25-2.97,7.32h-20.14c.44-6.98,2.4-12.72,5.88-17.21,5.54-7.03,15.06-10.55,28.54-10.55,8.78,0,16.58,1.73,23.39,5.2,6.82,3.47,10.23,10.01,10.23,19.63v36.62c0,2.54.05,5.62.15,9.23.15,2.74.56,4.59,1.25,5.57.68.98,1.71,1.78,3.08,2.42v3.08h-22.71c-.64-1.61-1.08-3.12-1.32-4.54-.24-1.41-.44-3.03-.59-4.83-2.9,3.13-6.24,5.79-10.02,7.98-4.52,2.59-9.63,3.88-15.33,3.88-7.27,0-13.27-2.06-18.01-6.19-4.74-4.13-7.11-9.97-7.11-17.54,0-9.82,3.81-16.92,11.44-21.32,4.18-2.39,10.33-4.1,18.45-5.13l7.16-.88ZM1107.69,131.23c-1.34.83-2.69,1.5-4.05,2.01-1.36.51-3.23.99-5.61,1.43l-4.75.88c-4.45.78-7.65,1.73-9.6,2.86-3.29,1.9-4.93,4.86-4.93,8.86,0,3.57,1,6.14,3.01,7.73,2.01,1.59,4.45,2.38,7.32,2.38,4.56,0,8.76-1.32,12.61-3.96,3.84-2.64,5.84-7.45,5.99-14.43v-7.76Z"/>
    <path class="cls-2" d="M1189.07,91.49c3.76,2.12,6.81,5.07,9.16,8.83v-38.09h21.17v107.82h-20.29v-11.06c-2.98,4.74-6.37,8.18-10.18,10.33s-8.55,3.22-14.21,3.22c-9.33,0-17.18-3.77-23.55-11.32-6.37-7.54-9.56-17.22-9.56-29.04,0-13.62,3.14-24.34,9.41-32.16,6.27-7.81,14.66-11.72,25.16-11.72,4.83,0,9.13,1.06,12.89,3.19ZM1194.2,148.37c3.08-4.39,4.61-10.08,4.61-17.07,0-9.77-2.47-16.75-7.4-20.95-3.03-2.54-6.54-3.81-10.55-3.81-6.1,0-10.58,2.31-13.44,6.92s-4.28,10.34-4.28,17.18c0,7.37,1.45,13.27,4.36,17.69,2.9,4.42,7.31,6.63,13.22,6.63s10.4-2.2,13.48-6.59Z"/>
    <path class="cls-2" d="M1304.95,160.07c-6.74,8.32-16.97,12.48-30.69,12.48s-23.95-4.16-30.69-12.48c-6.74-8.32-10.11-18.33-10.11-30.04s3.37-21.49,10.11-29.93c6.74-8.44,16.97-12.66,30.69-12.66s23.95,4.22,30.69,12.66c6.74,8.44,10.11,18.42,10.11,29.93s-3.37,21.73-10.11,30.04ZM1288.25,148.53c3.27-4.34,4.91-10.51,4.91-18.5s-1.64-14.15-4.91-18.47c-3.27-4.31-7.96-6.47-14.06-6.47s-10.8,2.16-14.1,6.47c-3.3,4.31-4.94,10.47-4.94,18.47s1.65,14.17,4.94,18.5c3.3,4.34,8,6.51,14.1,6.51s10.79-2.17,14.06-6.51Z"/>
    <path class="cls-2" d="M1322.05,172.54l27.25-40.43-26.08-39.26h25.56l13.34,23.13,13.03-23.13h24.83l-26.22,38.89,27.25,40.8h-26l-13.74-24-13.87,24h-25.34Z"/>
  </g>
</svg>