<?xml version="1.0" encoding="UTF-8"?>
<svg id="Layer_1" xmlns="http://www.w3.org/2000/svg" version="1.1" viewBox="0 0 1401 234.8">
  <!-- Generator: Adobe Illustrator 29.4.0, SVG Export Plug-In . SVG Version: 2.1.0 Build 152)  -->
  <defs>
    <style>
      .st0 {
        fill: none;
      }

      .st1 {
        fill: #fff;
      }
    </style>
  </defs>
  <path class="st1" d="M200.4,34.4C178.2,12.2,148.7,0,117.4,0S56.5,12.2,34.4,34.4C12.2,56.5,0,86,0,117.4s12.2,60.8,34.4,83c22.2,22.2,51.6,34.4,83,34.4s60.8-12.2,83-34.4c22.2-22.2,34.4-51.7,34.4-83s-12.2-60.8-34.4-83ZM117.4,218.6c-55.9,0-101.3-45.3-101.3-101.3S61.5,16.1,117.4,16.1s101.3,45.3,101.3,101.3-45.3,101.3-101.3,101.3h0Z"/>
  <g>
    <g>
      <path class="st1" d="M163.2,181.5c-1.7,0-3.4-.5-4.8-1.4-.3-.2-.5-.4-.8-.6-15.9-11.4-26.9-28.2-31-47.3l-.3-1.6h-17.5l-.3,1.6c-4.1,19.1-15.2,36-31.2,47.4h-.1c0,.1,0,.1,0,.1,0,0-.2.1-.2.2-.1,0-.2.1-.3.2h0c-1.4.9-3.1,1.4-4.8,1.4-5,0-9-4-9-9s1.5-5.8,4-7.5c16-11.3,25.5-29.6,25.5-49.2s-3.8-24.5-11-34.7c0,0,0,0,0-.2-1-1.5-1.5-3.2-1.5-4.9,0-5,4-9,9-9s5.3,1.2,7,3.3c.2.3.5.7.7,1h0s0,0,0,0h0c8.3,12.1,13,26.1,13.7,40.7v1.9h14.9v-1.9c.6-10.7,3.2-20.9,7.9-30.5h0c1.4-3,3-5.7,4.6-8.3.5-.8,1-1.5,1.5-2.2.1-.2.2-.3.3-.5.6-.8,1.4-1.5,2.3-2.1,1.5-1,3.2-1.5,4.9-1.5,5,0,9,4,9,9s-.5,3.5-1.5,4.9c-.1.2-.2.3-.3.4h0c-.7,1.1-1.4,2.1-2,3.2-.7,1.1-1.3,2.2-1.9,3.4h0v.2c-.1,0-.1,0-.1,0-4.4,8.4-6.7,18-6.7,27.6s.8,11.6,2.5,17.2c3.8,12.8,11.9,24.1,22.8,31.8h.1c0,.1,0,.1,0,.1,2.4,1.7,3.8,4.4,3.8,7.4,0,5-4,9-9,9h0Z"/>
      <path class="st1" d="M163.2,181.5c-1.7,0-3.4-.5-4.8-1.4-.3-.2-.5-.4-.8-.6-15.9-11.4-26.9-28.2-31-47.3l-.3-1.6h-17.5l-.3,1.6c-4.1,19.1-15.2,36-31.2,47.4h-.1c0,.1,0,.1,0,.1,0,0-.2.1-.2.2-.1,0-.2.1-.3.2h0c-1.4.9-3.1,1.4-4.8,1.4-5,0-9-4-9-9s1.5-5.8,4-7.5c16-11.3,25.5-29.6,25.5-49.2s-3.8-24.5-11-34.7c0,0,0,0,0-.2-1-1.5-1.5-3.2-1.5-4.9,0-5,4-9,9-9s5.3,1.2,7,3.3c.2.3.5.7.7,1h0s0,0,0,0h0c8.3,12.1,13,26.1,13.7,40.7v1.9h14.9v-1.9c.6-10.7,3.2-20.9,7.9-30.5h0c1.4-3,3-5.7,4.6-8.3.5-.8,1-1.5,1.5-2.2.1-.2.2-.3.3-.5.6-.8,1.4-1.5,2.3-2.1,1.5-1,3.2-1.5,4.9-1.5,5,0,9,4,9,9s-.5,3.5-1.5,4.9c-.1.2-.2.3-.3.4h0c-.7,1.1-1.4,2.1-2,3.2-.7,1.1-1.3,2.2-1.9,3.4h0v.2c-.1,0-.1,0-.1,0-4.4,8.4-6.7,18-6.7,27.6s.8,11.6,2.5,17.2c3.8,12.8,11.9,24.1,22.8,31.8h.1c0,.1,0,.1,0,.1,2.4,1.7,3.8,4.4,3.8,7.4,0,5-4,9-9,9h0Z"/>
    </g>
    <path class="st1" d="M117.5,37.2c-7.9,0-14.3,6.4-14.3,14.4s6.4,14.3,14.3,14.3,14.4-6.4,14.4-14.3-6.4-14.3-14.3-14.4Z"/>
  </g>
  <path class="st0" d="M172.2,172.5c0,5-4,9-9,9s-3.4-.5-4.8-1.4c-.3-.2-.5-.4-.8-.6-15.9-11.4-26.9-28.2-31-47.3l-.3-1.6h-17.5l-.3,1.6c-4.1,19.1-15.2,36-31.2,47.4h-.1c0,.1,0,.1,0,.1,0,0-.2.1-.2.2-.1,0-.2.1-.3.2h0c-1.4.9-3.1,1.4-4.8,1.4-5,0-9-4-9-9s1.5-5.8,4-7.5c16-11.3,25.5-29.6,25.5-49.2s-3.8-24.5-11-34.7c0,0,0,0,0-.2-1-1.5-1.5-3.2-1.5-4.9,0-5,4-9,9-9s5.3,1.2,7,3.3c.2.3.5.7.7,1h0s0,0,0,0h0c8.3,12.1,13,26.1,13.7,40.7v1.9h14.9v-1.9c.6-10.7,3.2-20.9,7.9-30.5h0c1.4-3,3-5.7,4.6-8.3.5-.8,1-1.5,1.5-2.2.1-.2.2-.3.3-.5.6-.8,1.4-1.5,2.3-2.1,1.5-1,3.2-1.5,4.9-1.5,5,0,9,4,9,9s-.5,3.5-1.5,4.9c-.1.2-.2.3-.3.4h0c-.7,1.1-1.4,2.1-2,3.2-.7,1.1-1.3,2.2-1.9,3.4h0v.2c-.1,0-.1,0-.1,0-4.4,8.4-6.7,18-6.7,27.6s.8,11.6,2.5,17.2c3.8,12.8,11.9,24.1,22.8,31.8h.1c0,.1,0,.1,0,.1,2.4,1.7,3.8,4.4,3.8,7.4h0Z"/>
  <path class="st1" d="M273.9,172.5v-108h22.4v41.2h42v-41.2h22.4v108h-22.4v-48.2h-42v48.2h-22.4Z"/>
  <path class="st1" d="M401.5,90.9v48.1c0,4.5.5,8,1.6,10.2,1.9,4.1,5.6,6.1,11.1,6.1s12-2.9,14.6-8.6c1.4-3.1,2-7.2,2-12.4v-43.4h21.2v79.8h-20.3v-11.3c-.2.2-.7,1-1.5,2.2s-1.7,2.3-2.8,3.2c-3.3,2.9-6.4,4.9-9.5,6s-6.6,1.6-10.7,1.6c-11.8,0-19.7-4.2-23.8-12.8-2.3-4.7-3.4-11.6-3.4-20.7v-48.1h21.4,0Z"/>
  <path class="st1" d="M572,93c3.4,1.4,6.5,3.8,9.3,7.2,2.2,2.8,3.8,6.2,4.5,10.2.5,2.7.7,6.6.7,11.8l-.2,50.3h-21.4v-50.8c0-3-.5-5.5-1.5-7.5-1.9-3.7-5.3-5.6-10.2-5.6s-9.7,2.4-11.9,7.2c-1.1,2.5-1.7,5.6-1.7,9.2v47.5h-21v-47.5c0-4.7-.5-8.2-1.5-10.3-1.8-3.9-5.2-5.8-10.3-5.8s-10,1.9-12,5.8c-1.1,2.2-1.7,5.5-1.7,9.8v48.1h-21.2v-79.7h20.3v11.7c2.6-4.2,5-7.1,7.3-8.9,4-3.1,9.3-4.7,15.7-4.7s11,1.3,14.8,4c3,2.5,5.3,5.7,6.9,9.6,2.7-4.7,6.1-8.1,10.2-10.3,4.3-2.2,9.1-3.3,14.4-3.3s7,.7,10.4,2.1h0Z"/>
  <path class="st1" d="M637.3,121.5c3.9-.5,6.7-1.1,8.3-1.8,3-1.3,4.5-3.2,4.5-5.9s-1.2-5.5-3.5-6.8-5.7-1.9-10.1-1.9-8.5,1.2-10.6,3.7c-1.5,1.8-2.5,4.2-3,7.3h-20.1c.4-7,2.4-12.7,5.9-17.2,5.5-7,15.1-10.6,28.5-10.6s16.6,1.7,23.4,5.2c6.8,3.5,10.2,10,10.2,19.6v36.6c0,2.5,0,5.6.2,9.2.2,2.7.6,4.6,1.2,5.6.7,1,1.7,1.8,3.1,2.4v3.1h-22.7c-.6-1.6-1.1-3.1-1.3-4.5s-.4-3-.6-4.8c-2.9,3.1-6.2,5.8-10,8-4.5,2.6-9.6,3.9-15.3,3.9s-13.3-2.1-18-6.2-7.1-10-7.1-17.5,3.8-16.9,11.4-21.3c4.2-2.4,10.3-4.1,18.5-5.1l7.2-.9h0ZM650.1,131.2c-1.3.8-2.7,1.5-4,2s-3.2,1-5.6,1.4l-4.8.9c-4.5.8-7.7,1.7-9.6,2.9-3.3,1.9-4.9,4.9-4.9,8.9s1,6.1,3,7.7,4.5,2.4,7.3,2.4c4.6,0,8.8-1.3,12.6-4,3.8-2.6,5.8-7.4,6-14.4v-7.8h0Z"/>
  <path class="st1" d="M753.5,97.3c5.2,4.3,7.8,11.5,7.8,21.5v53.8h-21.4v-48.6c0-4.2-.6-7.4-1.7-9.7-2-4.1-5.9-6.2-11.6-6.2s-11.8,3-14.5,9c-1.4,3.2-2,7.2-2,12.2v43.2h-20.9v-79.7h20.2v11.7c2.7-4.1,5.2-7.1,7.6-8.9,4.3-3.2,9.7-4.8,16.3-4.8s14.9,2.2,20.2,6.5h0Z"/>
  <path class="st1" d="M870.6,125.8c-6.3,5.3-15.3,7.9-27.1,7.9h-22.5v38.8h-22.4v-108h46.4c10.7,0,19.2,2.8,25.6,8.3,6.4,5.6,9.5,14.2,9.5,25.9s-3.2,21.8-9.5,27h0ZM853.4,86.9c-2.9-2.4-6.9-3.6-12-3.6h-20.3v31.8h20.3c5.2,0,9.2-1.3,12-3.9s4.3-6.7,4.3-12.3-1.4-9.6-4.3-12Z"/>
  <path class="st1" d="M928.1,121.5c3.9-.5,6.7-1.1,8.3-1.8,3-1.3,4.5-3.2,4.5-5.9s-1.2-5.5-3.5-6.8-5.7-1.9-10.1-1.9-8.5,1.2-10.6,3.7c-1.5,1.8-2.5,4.2-3,7.3h-20.1c.4-7,2.4-12.7,5.9-17.2,5.5-7,15.1-10.6,28.5-10.6s16.6,1.7,23.4,5.2c6.8,3.5,10.2,10,10.2,19.6v36.6c0,2.5,0,5.6.2,9.2.2,2.7.6,4.6,1.2,5.6.7,1,1.7,1.8,3.1,2.4v3.1h-22.7c-.6-1.6-1.1-3.1-1.3-4.5-.2-1.4-.4-3-.6-4.8-2.9,3.1-6.2,5.8-10,8-4.5,2.6-9.6,3.9-15.3,3.9s-13.3-2.1-18-6.2-7.1-10-7.1-17.5,3.8-16.9,11.4-21.3c4.2-2.4,10.3-4.1,18.5-5.1l7.2-.9h0ZM940.9,131.2c-1.3.8-2.7,1.5-4,2s-3.2,1-5.6,1.4l-4.8.9c-4.5.8-7.7,1.7-9.6,2.9-3.3,1.9-4.9,4.9-4.9,8.9s1,6.1,3,7.7,4.5,2.4,7.3,2.4c4.6,0,8.8-1.3,12.6-4,3.8-2.6,5.8-7.4,6-14.4v-7.8h0Z"/>
  <path class="st1" d="M1024.3,90.8c.3,0,.9,0,1.8.1v21.4c-1.3-.2-2.5-.2-3.5-.3s-1.9,0-2.5,0c-8.4,0-14,2.7-16.9,8.2-1.6,3.1-2.4,7.8-2.4,14.2v38.2h-21v-79.8h19.9v13.9c3.2-5.3,6-9,8.4-10.9,3.9-3.3,9-4.9,15.2-4.9s.7,0,1,0h0Z"/>
  <path class="st1" d="M1069.9,121.5c3.9-.5,6.7-1.1,8.3-1.8,3-1.3,4.5-3.2,4.5-5.9s-1.2-5.5-3.4-6.8c-2.3-1.2-5.7-1.9-10.1-1.9s-8.5,1.2-10.6,3.7c-1.5,1.8-2.5,4.2-3,7.3h-20.1c.4-7,2.4-12.7,5.9-17.2,5.5-7,15.1-10.6,28.5-10.6s16.6,1.7,23.4,5.2c6.8,3.5,10.2,10,10.2,19.6v36.6c0,2.5,0,5.6.2,9.2.2,2.7.6,4.6,1.2,5.6.7,1,1.7,1.8,3.1,2.4v3.1h-22.7c-.6-1.6-1.1-3.1-1.3-4.5-.2-1.4-.4-3-.6-4.8-2.9,3.1-6.2,5.8-10,8-4.5,2.6-9.6,3.9-15.3,3.9s-13.3-2.1-18-6.2-7.1-10-7.1-17.5,3.8-16.9,11.4-21.3c4.2-2.4,10.3-4.1,18.4-5.1l7.2-.9h0ZM1082.7,131.2c-1.3.8-2.7,1.5-4.1,2-1.4.5-3.2,1-5.6,1.4l-4.8.9c-4.4.8-7.7,1.7-9.6,2.9-3.3,1.9-4.9,4.9-4.9,8.9s1,6.1,3,7.7,4.4,2.4,7.3,2.4c4.6,0,8.8-1.3,12.6-4,3.8-2.6,5.8-7.4,6-14.4v-7.8h0Z"/>
  <path class="st1" d="M1164.1,91.5c3.8,2.1,6.8,5.1,9.2,8.8v-38.1h21.2v107.8h-20.3v-11.1c-3,4.7-6.4,8.2-10.2,10.3s-8.6,3.2-14.2,3.2c-9.3,0-17.2-3.8-23.6-11.3-6.4-7.5-9.6-17.2-9.6-29s3.1-24.3,9.4-32.2c6.3-7.8,14.7-11.7,25.2-11.7s9.1,1.1,12.9,3.2ZM1169.2,148.4c3.1-4.4,4.6-10.1,4.6-17.1s-2.5-16.8-7.4-20.9c-3-2.5-6.5-3.8-10.6-3.8-6.1,0-10.6,2.3-13.4,6.9s-4.3,10.3-4.3,17.2,1.4,13.3,4.4,17.7c2.9,4.4,7.3,6.6,13.2,6.6s10.4-2.2,13.5-6.6h0Z"/>
  <path class="st1" d="M1279.9,160.1c-6.7,8.3-17,12.5-30.7,12.5s-23.9-4.2-30.7-12.5c-6.7-8.3-10.1-18.3-10.1-30s3.4-21.5,10.1-29.9,17-12.7,30.7-12.7,23.9,4.2,30.7,12.7,10.1,18.4,10.1,29.9-3.4,21.7-10.1,30ZM1263.2,148.5c3.3-4.3,4.9-10.5,4.9-18.5s-1.6-14.2-4.9-18.5c-3.3-4.3-8-6.5-14.1-6.5s-10.8,2.2-14.1,6.5c-3.3,4.3-4.9,10.5-4.9,18.5s1.7,14.2,4.9,18.5c3.3,4.3,8,6.5,14.1,6.5s10.8-2.2,14.1-6.5Z"/>
  <path class="st1" d="M1297.1,172.5l27.2-40.4-26.1-39.3h25.6l13.3,23.1,13-23.1h24.8l-26.2,38.9,27.2,40.8h-26l-13.7-24-13.9,24h-25.4Z"/>
</svg>